<svg xmlns="http://www.w3.org/2000/svg" xmlns:xlink="http://www.w3.org/1999/xlink" width="26" height="27" viewBox="0 0 26 27"><defs><path id="r8uta" d="M1221.855 2926.286c6.943 0 12.399 5.804 12.399 12.955 0 7.234-5.456 13.037-12.44 13.037-7.025 0-12.564-5.803-12.564-13.037 0-7.15 5.539-12.955 12.564-12.955zm-.082 1.726c-5.91 0-10.456 4.962-10.456 11.355 0 6.266 4.546 11.188 10.497 11.188 5.827.084 10.374-4.922 10.374-11.314 0-6.267-4.547-11.23-10.374-11.23zm5.083 6.434c-.538-.294-2.066-.967-4.009-.967-3.885 0-5.786 2.523-5.786 5.888 0 3.28 2.025 5.93 5.828 5.93 1.653 0 3.223-.463 4.173-1.093l.497 1.598c-1.447.966-3.348 1.304-5.084 1.304-4.794 0-7.563-3.366-7.563-7.613 0-4.795 3.72-7.824 7.893-7.824 2.15 0 3.968.632 4.547 1.137z"/></defs><g><g transform="translate(-1209 -2926)"><use fill="#fefcfc" xlink:href="#r8uta"/><use fill="#99a5bd" xlink:href="#r8uta"/></g></g></svg>